<?xml version="1.0" standalone="no"?><!DOCTYPE svg PUBLIC "-//W3C//DTD SVG 1.1//EN" "http://www.w3.org/Graphics/SVG/1.1/DTD/svg11.dtd"><svg t="1710137272937" class="icon" viewBox="0 0 1024 1024" version="1.1" xmlns="http://www.w3.org/2000/svg" p-id="6049" xmlns:xlink="http://www.w3.org/1999/xlink" width="200" height="200"><path d="M738.272 285.728m-67.882251-67.882251a96 96 0 1 0 135.764502 135.764502 96 96 0 1 0-135.764502-135.764502Z" fill="#778AD9" p-id="6050"></path><path d="M832 512m0-96a96 96 0 1 0 0 192 96 96 0 1 0 0-192Z" fill="#30AD98" p-id="6051"></path><path d="M192 512m0-96a96 96 0 1 0 0 192 96 96 0 1 0 0-192Z" fill="#C49F74" p-id="6052"></path><path d="M285.728 285.728m67.882251-67.882251a96 96 0 1 0-135.764502 135.764502 96 96 0 1 0 135.764502-135.764502Z" fill="#8FC474" p-id="6053"></path><path d="M512 192m-96 0a96 96 0 1 0 192 0 96 96 0 1 0-192 0Z" fill="#27A2DF" p-id="6054"></path><path d="M368 656v128h64v-128h-64z m224 128v128h64v-128h-64z" fill="#FFFFFF" p-id="6055"></path><path d="M576 832v-64h96v64h256v32h-256v64h-96v-64H96v-32h480z m32-32v96h32v-96h-32z m-160-96h480v32H448v64H352v-64H96v-32h256v-64h96v64z m-32-32H384v96h32v-96z" fill="#5D6D7E" p-id="6056"></path><path d="M352 640h96v160H352v-160z m32 32v96h32v-96H384zM576 768h96v160h-96v-160z m32 32v96h32v-96h-32z" fill="#808FA1" p-id="6057"></path></svg>